<?xml version="1.0" encoding="UTF-8" standalone="no"?>
<!-- Created with Inkscape (http://www.inkscape.org/) -->

<svg
   width="122.212mm"
   height="125.143mm"
   viewBox="0 0 122.212 125.143"
   version="1.1"
   id="svg11837"
   xml:space="preserve"
   sodipodi:docname="metalAWS.svg"
   inkscape:version="1.2.2 (b0a8486541, 2022-12-01)"
   inkscape:export-filename="metalAWS.png"
   inkscape:export-xdpi="174.85237"
   inkscape:export-ydpi="174.85237"
   xmlns:inkscape="http://www.inkscape.org/namespaces/inkscape"
   xmlns:sodipodi="http://sodipodi.sourceforge.net/DTD/sodipodi-0.dtd"
   xmlns:xlink="http://www.w3.org/1999/xlink"
   xmlns="http://www.w3.org/2000/svg"
   xmlns:svg="http://www.w3.org/2000/svg"><sodipodi:namedview
     id="namedview11839"
     pagecolor="#ffffff"
     bordercolor="#000000"
     borderopacity="0.25"
     inkscape:showpageshadow="2"
     inkscape:pageopacity="0.0"
     inkscape:pagecheckerboard="0"
     inkscape:deskcolor="#d1d1d1"
     inkscape:document-units="mm"
     showgrid="false"
     inkscape:connector-spacing="0"
     inkscape:zoom="1.8101934"
     inkscape:cx="296.92961"
     inkscape:cy="243.62038"
     inkscape:window-width="2560"
     inkscape:window-height="1403"
     inkscape:window-x="0"
     inkscape:window-y="0"
     inkscape:window-maximized="1"
     inkscape:current-layer="layer1" /><defs
     id="defs11834"><linearGradient
       inkscape:collect="always"
       id="linearGradient43282"><stop
         style="stop-color:#c56036;stop-opacity:1;"
         offset="0"
         id="stop43278" /><stop
         style="stop-color:#c56036;stop-opacity:0;"
         offset="1"
         id="stop43280" /></linearGradient><marker
       style="overflow:visible"
       id="Arrow2"
       refX="0"
       refY="0"
       orient="auto-start-reverse"
       inkscape:stockid="Arrow2"
       markerWidth="5"
       markerHeight="3.3333333"
       viewBox="0 0 7.7 5.6"
       inkscape:isstock="true"
       inkscape:collect="always"
       preserveAspectRatio="xMidYMid"><path
         transform="scale(0.7)"
         d="M -2,-4 9,0 -2,4 c 2,-2.33 2,-5.66 0,-8 z"
         style="fill:context-stroke;fill-rule:evenodd;stroke:none"
         id="arrow2L" /></marker><marker
       style="overflow:visible"
       id="marker37633"
       refX="0"
       refY="0"
       orient="auto-start-reverse"
       inkscape:stockid="Arrow1"
       markerWidth="4.0606604"
       markerHeight="6.7071066"
       viewBox="0 0 4.0606602 6.7071068"
       inkscape:isstock="true"
       inkscape:collect="always"
       preserveAspectRatio="xMidYMid"><path
         style="fill:none;stroke:context-stroke;stroke-width:1;stroke-linecap:butt"
         d="M 3,-3 0,0 3,3"
         id="path37631"
         transform="rotate(180,0.125,0)"
         sodipodi:nodetypes="ccc" /></marker><marker
       style="overflow:visible"
       id="marker34650"
       refX="0"
       refY="0"
       orient="auto-start-reverse"
       inkscape:stockid="Arrow1"
       markerWidth="4.0606599"
       markerHeight="6.7071061"
       viewBox="0 0 4.0606602 6.7071068"
       inkscape:isstock="true"
       inkscape:collect="always"
       preserveAspectRatio="xMidYMid"><path
         style="fill:none;stroke:context-stroke;stroke-width:1;stroke-linecap:butt"
         d="M 3,-3 0,0 3,3"
         id="path34648"
         transform="rotate(180,0.125,0)"
         sodipodi:nodetypes="ccc" /></marker><marker
       style="overflow:visible"
       id="marker31153"
       refX="0"
       refY="0"
       orient="auto-start-reverse"
       inkscape:stockid="Arrow1"
       markerWidth="4.0606599"
       markerHeight="6.7071061"
       viewBox="0 0 4.0606602 6.7071068"
       inkscape:isstock="true"
       inkscape:collect="always"
       preserveAspectRatio="xMidYMid"><path
         style="fill:none;stroke:context-stroke;stroke-width:1;stroke-linecap:butt"
         d="M 3,-3 0,0 3,3"
         id="path31151"
         transform="rotate(180,0.125,0)"
         sodipodi:nodetypes="ccc" /></marker><marker
       style="overflow:visible"
       id="Arrow1"
       refX="0"
       refY="0"
       orient="auto-start-reverse"
       inkscape:stockid="Arrow1"
       markerWidth="4.0606604"
       markerHeight="6.7071066"
       viewBox="0 0 4.0606602 6.7071068"
       inkscape:isstock="true"
       inkscape:collect="always"
       preserveAspectRatio="xMidYMid"><path
         style="fill:none;stroke:context-stroke;stroke-width:1;stroke-linecap:butt"
         d="M 3,-3 0,0 3,3"
         id="path5057"
         transform="rotate(180,0.125,0)"
         sodipodi:nodetypes="ccc" /></marker><style
       id="style2">.cls-1{fill:#fff;stroke:#d9d9d9;}.cls-2{fill:#e00;}</style><linearGradient
       inkscape:collect="always"
       xlink:href="#linearGradient43282"
       id="linearGradient43284"
       x1="97.589714"
       y1="109.32248"
       x2="108.39419"
       y2="109.32248"
       gradientUnits="userSpaceOnUse" /></defs><g
     inkscape:label="Layer 1"
     inkscape:groupmode="layer"
     id="layer1"
     transform="translate(-3.4827204,-14.313766)"><rect
       style="opacity:1;fill:#e2ff80;fill-opacity:1;stroke:#000080;stroke-width:0.0769361"
       id="rect11922"
       width="116.13538"
       height="89.339531"
       x="6.1670218"
       y="47.195869"
       ry="1.8016754" /><text
       xml:space="preserve"
       style="font-size:3.175px;opacity:1;fill:#000000;fill-opacity:1;stroke:#000000;stroke-width:0.1;stroke-opacity:1"
       x="10.890779"
       y="52.235023"
       id="text17707"><tspan
         sodipodi:role="line"
         id="tspan17705"
         style="fill:#000000;fill-opacity:1;stroke:#000000;stroke-width:0.1;stroke-opacity:1"
         x="10.890779"
         y="52.235023">VPC</tspan></text><g
       style="fill:#000000"
       id="g21759"
       transform="matrix(0.29386389,0,0,0.29386389,10.360679,40.014437)"><path
         d="m 6.763,10.036 c 0,0.296 0.032,0.535 0.088,0.71 0.064,0.176 0.144,0.368 0.256,0.576 0.04,0.063 0.056,0.127 0.056,0.183 0,0.08 -0.048,0.16 -0.152,0.24 L 6.508,12.08 A 0.383,0.383 0 0 1 6.3,12.152 c -0.08,0 -0.16,-0.04 -0.239,-0.112 A 2.47,2.47 0 0 1 5.774,11.665 6.18,6.18 0 0 1 5.526,11.194 c -0.622,0.734 -1.405,1.101 -2.347,1.101 -0.67,0 -1.205,-0.191 -1.596,-0.574 -0.391,-0.384 -0.59,-0.894 -0.59,-1.533 0,-0.678 0.239,-1.23 0.726,-1.644 0.487,-0.415 1.133,-0.623 1.955,-0.623 0.272,0 0.551,0.024 0.846,0.064 0.296,0.04 0.6,0.104 0.918,0.176 V 7.578 C 5.438,6.971 5.311,6.548 5.063,6.301 4.808,6.053 4.377,5.934 3.763,5.934 3.483,5.934 3.195,5.965 2.9,6.037 2.605,6.109 2.317,6.197 2.038,6.309 A 2.287,2.287 0 0 1 1.758,6.413 0.488,0.488 0 0 1 1.631,6.436 C 1.519,6.436 1.463,6.356 1.463,6.189 V 5.798 c 0,-0.128 0.016,-0.224 0.056,-0.28 A 0.597,0.597 0 0 1 1.743,5.351 C 2.022,5.207 2.357,5.087 2.748,4.991 A 4.84,4.84 0 0 1 3.994,4.84 c 0.95,0 1.644,0.216 2.091,0.647 0.439,0.43 0.662,1.085 0.662,1.963 v 2.586 z m -3.24,1.214 c 0.263,0 0.534,-0.048 0.822,-0.144 0.287,-0.096 0.543,-0.271 0.758,-0.51 0.128,-0.152 0.224,-0.32 0.272,-0.512 C 5.422,9.893 5.455,9.661 5.455,9.39 V 9.055 A 6.66,6.66 0 0 0 4.72,8.919 6.02,6.02 0 0 0 3.97,8.871 c -0.535,0 -0.926,0.104 -1.19,0.32 -0.263,0.215 -0.39,0.518 -0.39,0.917 0,0.375 0.095,0.655 0.295,0.846 0.191,0.2 0.47,0.296 0.838,0.296 z m 6.41,0.862 c -0.144,0 -0.24,-0.024 -0.304,-0.08 -0.064,-0.048 -0.12,-0.16 -0.168,-0.311 L 7.586,5.55 A 1.398,1.398 0 0 1 7.514,5.23 c 0,-0.128 0.064,-0.2 0.191,-0.2 h 0.783 c 0.151,0 0.255,0.025 0.31,0.08 0.065,0.048 0.113,0.16 0.16,0.312 l 1.342,5.284 1.245,-5.284 c 0.04,-0.16 0.088,-0.264 0.151,-0.312 a 0.549,0.549 0 0 1 0.32,-0.08 h 0.638 c 0.152,0 0.256,0.025 0.32,0.08 0.063,0.048 0.12,0.16 0.151,0.312 l 1.261,5.348 1.381,-5.348 c 0.048,-0.16 0.104,-0.264 0.16,-0.312 a 0.52,0.52 0 0 1 0.311,-0.08 h 0.743 c 0.127,0 0.2,0.065 0.2,0.2 0,0.04 -0.009,0.08 -0.017,0.128 a 1.137,1.137 0 0 1 -0.056,0.2 l -1.923,6.17 c -0.048,0.16 -0.104,0.263 -0.168,0.311 a 0.51,0.51 0 0 1 -0.303,0.08 h -0.687 c -0.151,0 -0.255,-0.024 -0.32,-0.08 -0.063,-0.056 -0.119,-0.16 -0.15,-0.32 l -1.238,-5.148 -1.23,5.14 c -0.04,0.16 -0.087,0.264 -0.15,0.32 -0.065,0.056 -0.177,0.08 -0.32,0.08 z m 10.256,0.215 c -0.415,0 -0.83,-0.048 -1.229,-0.143 -0.399,-0.096 -0.71,-0.2 -0.918,-0.32 -0.128,-0.071 -0.215,-0.151 -0.247,-0.223 A 0.563,0.563 0 0 1 17.747,11.417 V 11.01 c 0,-0.167 0.064,-0.247 0.183,-0.247 0.048,0 0.096,0.008 0.144,0.024 0.048,0.016 0.12,0.048 0.2,0.08 0.271,0.12 0.566,0.215 0.878,0.279 0.319,0.064 0.63,0.096 0.95,0.096 0.502,0 0.894,-0.088 1.165,-0.264 A 0.86,0.86 0 0 0 21.682,10.22 0.777,0.777 0 0 0 21.467,9.661 C 21.323,9.51 21.051,9.374 20.66,9.246 L 19.503,8.886 C 18.92,8.703 18.489,8.432 18.226,8.073 a 1.902,1.902 0 0 1 -0.4,-1.158 c 0,-0.335 0.073,-0.63 0.216,-0.886 0.144,-0.255 0.335,-0.479 0.575,-0.654 0.24,-0.184 0.51,-0.32 0.83,-0.415 0.32,-0.096 0.655,-0.136 1.006,-0.136 0.175,0 0.359,0.008 0.535,0.032 0.183,0.024 0.35,0.056 0.518,0.088 0.16,0.04 0.312,0.08 0.455,0.127 0.144,0.048 0.256,0.096 0.336,0.144 a 0.69,0.69 0 0 1 0.24,0.2 0.43,0.43 0 0 1 0.071,0.263 v 0.375 c 0,0.168 -0.064,0.256 -0.184,0.256 A 0.83,0.83 0 0 1 22.121,6.213 3.652,3.652 0 0 0 20.589,5.902 c -0.455,0 -0.815,0.071 -1.062,0.223 -0.248,0.152 -0.375,0.383 -0.375,0.71 0,0.224 0.08,0.416 0.24,0.567 0.159,0.152 0.454,0.304 0.877,0.44 L 21.403,8.2 c 0.574,0.184 0.99,0.44 1.237,0.767 0.247,0.327 0.367,0.702 0.367,1.117 0,0.343 -0.072,0.655 -0.207,0.926 -0.144,0.272 -0.336,0.511 -0.583,0.703 -0.248,0.2 -0.543,0.343 -0.886,0.447 -0.36,0.111 -0.734,0.167 -1.142,0.167 z m 1.509,3.88 c -2.626,1.94 -6.442,2.969 -9.722,2.969 -4.598,0 -8.74,-1.7 -11.87,-4.526 -0.247,-0.223 -0.024,-0.527 0.272,-0.351 3.384,1.963 7.559,3.153 11.877,3.153 2.914,0 6.114,-0.607 9.06,-1.852 0.439,-0.2 0.814,0.287 0.383,0.607 z m 1.094,-1.246 c -0.336,-0.43 -2.22,-0.207 -3.074,-0.103 -0.255,0.032 -0.295,-0.192 -0.063,-0.36 1.5,-1.053 3.967,-0.75 4.254,-0.399 0.287,0.36 -0.08,2.826 -1.485,4.007 -0.215,0.184 -0.423,0.088 -0.327,-0.151 0.32,-0.79 1.03,-2.57 0.695,-2.994 z"
         id="path21750" /></g><rect
       style="opacity:1;fill:#828273;fill-opacity:1;stroke:#000000;stroke-width:0.1;stroke-opacity:1"
       id="rect22902"
       width="74.659622"
       height="77.634407"
       x="12.041266"
       y="55.969936"
       ry="1.7778038" /><text
       xml:space="preserve"
       style="font-style:normal;font-variant:normal;font-weight:normal;font-stretch:normal;font-size:3.175px;font-family:sans-serif;-inkscape-font-specification:'sans-serif, Normal';font-variant-ligatures:normal;font-variant-caps:normal;font-variant-numeric:normal;font-variant-east-asian:normal;opacity:1;fill:#000000;fill-opacity:1;stroke:#000000;stroke-width:0.1;stroke-opacity:1"
       x="35.961472"
       y="59.993187"
       id="text23946"><tspan
         sodipodi:role="line"
         id="tspan38639"
         x="35.961472"
         y="59.993187">Availability Zone A</tspan></text><rect
       style="opacity:1;fill:#41cf75;fill-opacity:1;stroke:#000000;stroke-width:0.1;stroke-opacity:1"
       id="rect24724"
       width="62.308987"
       height="65.476357"
       x="16.22554"
       y="64.252975"
       ry="1.7778038" /><text
       xml:space="preserve"
       style="font-size:3.175px;opacity:1;fill:#000000;fill-opacity:1;stroke:#000000;stroke-width:0.1;stroke-opacity:1"
       x="37.181942"
       y="67.994667"
       id="text25456"><tspan
         sodipodi:role="line"
         id="tspan25454"
         style="fill:#000000;stroke-width:0.1"
         x="37.181942"
         y="67.994667">Public subnet</tspan></text><g
       style="fill:#e7605c;fill-opacity:1"
       id="g25491"
       transform="matrix(0.29618243,0,0,0.29618243,94.331373,54.479002)"><path
         fill-rule="evenodd"
         clip-rule="evenodd"
         d="M 12,24 C 5.37258,24 0,18.6274 0,12 0,5.37258 5.37258,0 12,0 18.6274,0 24,5.37258 24,12 24,18.6274 18.6274,24 12,24 Z M 2,12 C 2,17.5228 6.47715,22 12,22 17.5228,22 22,17.5228 22,12 22,6.47715 17.5228,2 12,2 6.47715,2 2,6.47715 2,12 Z M 13.0312,6.96875 H 13 V 4 H 11 V 6.96875 H 10.9688 8.96875 l 1.19995,1.6 1.0313,1.375 0.8,1.06665 0.8,-1.06665 1.0313,-1.375 1.1999,-1.6 z M 12,12.9974 l -0.8,1.0667 -1.0313,1.375 -1.19995,1.6 H 10.9688 11 V 20 h 2 v -2.9609 h 0.0312 2 l -1.1999,-1.6 L 12.8,14.0641 Z M 4.025,12.8 2.95833,12 4.025,11.2 5.4,10.1687 7,8.96875 V 10.9688 11 h 3 v 2 H 7 v 0.0312 2 L 5.4,13.8313 Z M 21.0417,12 19.975,11.2 18.6,10.1687 17,8.96875 V 10.9688 11 h -3 v 2 h 3 v 0.0312 2 L 18.6,13.8313 19.975,12.8 Z"
         fill="#000000"
         id="path25482"
         style="fill:#e7605c;fill-opacity:1" /></g><g
       id="g27618"
       transform="matrix(0.03965755,0,0,0.03965755,54.086625,17.801298)"><g
         id="g27485">
	<path
   style="fill:#ffffff"
   d="m 263.079,291.922 h -12.994 c -14.222,12.929 -28.444,24.76 -42.667,35.362 v 33.875 c 22.691,-6.4 42.667,-32.518 55.661,-69.237 z"
   id="path27445" />
	<path
   style="fill:#ffffff"
   d="m 255.58,40.706 c 12.541,15.451 22.949,35.749 30.513,59.604 h 46.222 C 313.374,73.546 286.74,52.601 255.58,40.706 Z"
   id="path27447" />
	<path
   style="fill:#ffffff"
   d="m 207.354,299.809 c 3.168,-2.521 6.4,-5.172 9.568,-7.887 h -9.568 z"
   id="path27449" />
	<path
   style="fill:#ffffff"
   d="m 207.354,31.397 v 68.848 h 55.531 C 249.956,63.785 229.98,37.862 207.354,31.397 Z"
   id="path27451" />
	<path
   style="fill:#ffffff"
   d="m 207.354,185.191 h 70.853 c -0.776,-22.432 -3.879,-43.83 -8.727,-63.16 h -62.125 v 63.16 z"
   id="path27453" />
	<path
   style="fill:#ffffff"
   d="m 286.287,291.922 c -7.628,23.984 -18.166,44.412 -30.772,59.992 31.289,-11.895 58.053,-32.97 77.059,-59.992 z"
   id="path27455" />
	<path
   style="fill:#ffffff"
   d="m 292.041,122.161 c 4.461,19.459 7.24,40.727 7.887,63.16 h 16.679 c 13.059,-18.23 24.178,-36.331 32.905,-53.85 -1.293,-3.168 -2.715,-6.271 -4.267,-9.244 h -53.204 z"
   id="path27457" />
	<path
   style="fill:#ffffff"
   d="m 358.95,160.367 c -4.719,8.275 -9.826,16.549 -15.321,24.824 h 18.877 c -0.518,-8.404 -1.746,-16.679 -3.556,-24.824 z"
   id="path27459" />
	<path
   style="fill:#ffffff"
   d="m 300.186,206.977 h -0.129 c 0,0.065 0,0.129 0,0.129 0,0 0,-0.065 0.129,-0.129 z"
   id="path27461" />
	<path
   style="fill:#ffffff"
   d="m 256.227,255.979 c 6.788,-6.788 13.382,-13.77 19.717,-20.687 1.164,-9.18 1.939,-18.618 2.327,-28.251 h -70.917 v 63.16 h 34.133 c 4.978,-4.655 9.827,-9.374 14.74,-14.222 z"
   id="path27463" />
	<path
   style="fill:#ffffff"
   d="m 185.568,122.161 h -62.125 c -4.848,19.329 -7.952,40.663 -8.727,63.16 h 70.853 v -63.16 z"
   id="path27465" />
	<path
   style="fill:#ffffff"
   d="m 60.606,100.375 h 46.222 c 7.628,-23.79 18.101,-44.154 30.513,-59.604 -31.03,11.83 -57.728,32.775 -76.735,59.604 z"
   id="path27467" />
	<path
   style="fill:#ffffff"
   d="m 30.481,185.191 h 62.513 c 0.711,-22.432 3.426,-43.636 7.887,-63.16 H 47.548 c -9.632,19.33 -15.58,40.663 -17.067,63.16 z"
   id="path27469" />
	<path
   style="fill:#ffffff"
   d="m 100.817,270.136 c -4.461,-19.459 -7.176,-40.727 -7.822,-63.16 H 30.417 c 1.487,22.562 7.434,43.895 16.937,63.16 z"
   id="path27471" />
	<path
   style="fill:#ffffff"
   d="m 130.101,100.375 h 55.531 V 31.397 c -22.626,6.465 -42.537,32.388 -55.531,68.978 z"
   id="path27473" />
	<path
   style="fill:#ffffff"
   d="m 185.568,206.977 h -70.853 c 0.776,22.432 3.814,43.766 8.663,63.16 h 62.19 z"
   id="path27475" />
	<path
   style="fill:#ffffff"
   d="m 296.695,244.989 c -1.228,8.598 -2.715,17.002 -4.59,25.083 h 53.398 c 9.568,-19.265 15.515,-40.598 16.937,-63.16 h -34.392 c -9.438,12.735 -19.846,25.406 -31.353,38.077 z"
   id="path27477" />
	<path
   style="fill:#ffffff"
   d="m 185.568,342.928 c -5.43,3.62 -10.667,6.982 -15.968,10.214 5.107,3.814 10.537,6.465 15.968,8.016 z"
   id="path27479" />
	<path
   style="fill:#ffffff"
   d="m 185.568,291.922 h -55.661 c 6.335,18.036 14.481,33.487 23.661,45.253 10.343,-6.077 21.01,-13.059 32,-20.881 z"
   id="path27481" />
	<path
   style="fill:#ffffff"
   d="m 60.413,291.922 c 17.778,25.212 42.343,45.123 70.982,57.406 1.034,-0.453 1.939,-1.034 2.909,-1.487 -11.184,-14.998 -20.622,-33.939 -27.669,-55.919 z"
   id="path27483" />
</g><path
         style="fill:#194f82"
         d="M 376.728,15.946 C 354.296,-6.486 313.116,-5.129 260.558,19.243 240.518,12.003 218.99,7.93 196.429,7.93 92.671,7.995 8.243,92.488 8.243,196.245 c 0,22.497 4.008,44.154 11.313,64.129 -24.436,52.622 -26.44,94.578 -3.362,116.234 30.772,28.832 83.135,12.671 115.911,-3.426 20.105,7.37 41.826,11.378 64.388,11.378 103.758,0 188.25,-84.428 188.25,-188.251 0,-22.497 -3.943,-44.024 -11.184,-64.065 24.825,-54.366 24.567,-94.9 3.169,-116.298 z m -15.386,15.451 c 12.929,12.929 12.671,39.499 -0.129,73.891 C 344.082,74.387 318.482,48.787 287.581,31.656 321.649,18.92 348.542,18.597 361.342,31.397 Z m -44.671,153.794 h -16.679 c -0.711,-22.432 -3.426,-43.636 -7.887,-63.16 h 53.333 c 1.552,3.038 2.909,6.077 4.267,9.244 -8.791,17.585 -19.975,35.75 -33.034,53.916 z m 42.279,-24.824 c 1.745,8.016 2.909,16.291 3.556,24.824 h -18.877 c 5.624,-8.275 10.602,-16.55 15.321,-24.824 z m -58.764,46.61 c -0.065,0.065 -0.065,0.129 -0.129,0.129 0,-0.065 0,-0.129 0,-0.129 z M 286.158,100.375 c -7.628,-23.79 -18.101,-44.154 -30.513,-59.604 31.16,11.895 57.794,32.84 76.735,59.604 z m -78.804,169.761 v -63.16 h 70.853 c -0.323,9.632 -1.164,19.071 -2.327,28.251 -6.335,6.982 -12.929,13.899 -19.717,20.687 -4.848,4.848 -9.762,9.568 -14.61,14.158 h -34.198 v 0.064 z m 9.697,21.786 c -3.168,2.715 -6.4,5.301 -9.568,7.887 v -7.887 z m 52.428,-169.761 c 4.848,19.329 7.952,40.663 8.727,63.16 h -70.853 v -63.16 z M 207.354,100.375 V 31.397 c 22.562,6.4 42.602,32.388 55.531,68.848 h -55.531 z m 0,226.909 c 14.222,-10.667 28.444,-22.497 42.667,-35.362 h 12.994 c -12.994,36.719 -32.97,62.772 -55.661,69.236 z m 48.162,24.565 c 12.606,-15.515 23.079,-36.008 30.772,-59.992 h 46.352 c -19.007,27.023 -45.836,48.097 -77.124,59.992 z m 90.117,-81.713 h -53.398 c 1.875,-8.016 3.297,-16.485 4.59,-25.083 11.507,-12.735 21.915,-25.406 31.418,-38.012 h 34.392 c -1.487,22.497 -7.435,43.831 -17.002,63.095 z m -192,67.039 c -9.244,-11.83 -17.325,-27.281 -23.661,-45.253 h 55.661 v 24.372 c -10.926,7.822 -21.592,14.804 -32,20.881 z m 31.935,5.753 v 18.23 c -5.495,-1.552 -10.796,-4.331 -15.968,-8.016 5.301,-3.297 10.667,-6.658 15.968,-10.214 z m -51.135,4.913 c -1.034,0.517 -2.004,1.034 -2.909,1.487 C 102.821,337.11 78.255,317.069 60.478,291.922 h 46.352 c 6.98,21.98 16.354,40.921 27.603,55.919 z m -11.055,-77.705 c -4.848,-19.329 -7.887,-40.663 -8.663,-63.16 h 70.853 v 63.16 z m -8.598,-84.945 c 0.776,-22.432 3.879,-43.83 8.727,-63.16 h 62.125 v 63.16 z m -7.951,-84.816 H 60.606 C 79.547,73.611 106.182,52.601 137.341,40.771 124.93,56.221 114.457,76.52 106.829,100.375 Z m -5.948,21.786 c -4.461,19.459 -7.24,40.727 -7.887,63.16 H 30.481 c 1.487,-22.562 7.499,-43.895 17.067,-63.16 z m -7.887,84.816 c 0.711,22.432 3.426,43.636 7.822,63.16 H 47.419 C 37.851,250.872 31.904,229.539 30.482,206.977 Z M 185.568,100.375 H 130.037 C 143.096,63.85 163.007,37.862 185.568,31.462 Z M 31.645,361.159 c -12.8,-12.8 -12.541,-39.693 0.129,-73.826 17.067,30.836 42.602,56.307 73.309,73.503 -34.262,12.67 -60.897,12.929 -73.438,0.323 z"
         id="path27487" /><g
         id="g27525">
	<path
   style="fill:#56ace0"
   d="m 300.186,206.977 h -0.129 c 0,0.065 0,0.129 0,0.129 0,0 0,-0.065 0.129,-0.129 z"
   id="path27489" />
	<path
   style="fill:#56ace0"
   d="m 276.914,76.068 c 3.426,7.564 6.594,15.709 9.244,24.178 h 18.36 C 296.372,91.13 287.128,82.985 276.914,76.068 Z"
   id="path27491" />
	<path
   style="fill:#56ace0"
   d="m 292.041,122.161 c 4.461,19.459 7.24,40.727 7.887,63.16 h 16.679 c 6.853,-9.568 13.123,-19.071 18.877,-28.509 -3.491,-12.283 -8.598,-23.855 -14.998,-34.651 z"
   id="path27493" />
	<path
   style="fill:#56ace0"
   d="m 263.079,291.922 h -12.994 c -14.222,12.929 -28.444,24.76 -42.667,35.362 v 13.123 c 12.024,-0.905 23.725,-3.232 34.78,-6.982 8.081,-11.248 15.063,-25.277 20.881,-41.503 z"
   id="path27495" />
	<path
   style="fill:#56ace0"
   d="m 185.568,122.161 h -62.125 c -4.848,19.329 -7.952,40.663 -8.727,63.16 h 70.853 v -63.16 z"
   id="path27497" />
	<path
   style="fill:#56ace0"
   d="m 130.101,100.375 h 55.531 V 52.148 c -12.024,0.905 -23.725,3.232 -34.78,6.982 -8.015,11.184 -15.126,25.148 -20.751,41.245 z"
   id="path27499" />
	<path
   style="fill:#56ace0"
   d="m 116.202,316.488 c -3.491,-7.758 -6.659,-15.903 -9.438,-24.566 H 88.146 c 8.275,9.309 17.648,17.584 28.056,24.566 z"
   id="path27501" />
	<path
   style="fill:#56ace0"
   d="m 185.568,316.359 v -24.372 h -55.661 c 5.689,16.226 12.8,30.319 20.945,41.568 1.939,0.646 3.879,1.228 5.818,1.745 9.439,-5.689 19.072,-11.96 28.898,-18.941 z"
   id="path27503" />
	<path
   style="fill:#56ace0"
   d="m 123.378,270.136 h 62.19 v -63.16 h -70.853 c 0.776,22.433 3.879,43.831 8.663,63.16 z"
   id="path27505" />
	<path
   style="fill:#56ace0"
   d="m 100.817,270.136 c -4.461,-19.459 -7.176,-40.727 -7.822,-63.16 H 52.267 c 1.681,22.949 8.727,44.347 19.846,63.16 z"
   id="path27507" />
	<path
   style="fill:#56ace0"
   d="m 88.469,100.375 h 18.36 c 2.715,-8.598 5.883,-16.614 9.244,-24.178 -10.149,6.788 -19.523,14.933 -27.604,24.178 z"
   id="path27509" />
	<path
   style="fill:#56ace0"
   d="m 207.354,100.375 h 55.531 C 257.196,84.278 250.15,70.314 242.069,59.131 231.014,55.446 219.378,53.054 207.289,52.149 v 48.226 z"
   id="path27511" />
	<path
   style="fill:#56ace0"
   d="m 92.994,185.191 c 0.711,-22.432 3.426,-43.636 7.887,-63.16 H 72.372 c -11.184,18.683 -18.295,40.21 -20.105,63.16 z"
   id="path27513" />
	<path
   style="fill:#56ace0"
   d="m 304.905,291.922 h -18.618 c -2.78,8.663 -5.947,16.873 -9.438,24.566 10.343,-6.982 19.782,-15.257 28.056,-24.566 z"
   id="path27515" />
	<path
   style="fill:#56ace0"
   d="m 207.354,291.922 v 7.887 c 3.168,-2.521 6.4,-5.172 9.568,-7.887 z"
   id="path27517" />
	<path
   style="fill:#56ace0"
   d="m 328.114,206.977 c -9.503,12.606 -19.911,25.277 -31.418,38.012 -1.228,8.598 -2.715,17.002 -4.59,25.083 h 28.574 c 11.119,-18.683 18.166,-40.21 19.846,-63.16 z"
   id="path27519" />
	<path
   style="fill:#56ace0"
   d="m 256.227,255.979 c 6.788,-6.788 13.382,-13.77 19.717,-20.687 1.164,-9.18 1.939,-18.618 2.327,-28.251 h -70.917 v 63.16 h 34.133 c 4.978,-4.655 9.827,-9.374 14.74,-14.222 z"
   id="path27521" />
	<path
   style="fill:#56ace0"
   d="m 269.479,122.161 h -62.125 v 63.095 h 70.853 c -0.776,-22.497 -3.879,-43.766 -8.728,-63.095 z"
   id="path27523" />
</g><g
         id="g27527">
</g><g
         id="g27529">
</g><g
         id="g27531">
</g><g
         id="g27533">
</g><g
         id="g27535">
</g><g
         id="g27537">
</g><g
         id="g27539">
</g><g
         id="g27541">
</g><g
         id="g27543">
</g><g
         id="g27545">
</g><g
         id="g27547">
</g><g
         id="g27549">
</g><g
         id="g27551">
</g><g
         id="g27553">
</g><g
         id="g27555">
</g></g><path
       style="fill:none;fill-rule:evenodd;stroke:#000000;stroke-width:0.465;stroke-linecap:butt;stroke-linejoin:miter;stroke-dasharray:none;stroke-opacity:1;marker-start:url(#Arrow1);marker-end:url(#marker31153)"
       d="M 95.244994,55.654142 C 91.393568,51.5221 91.32117,45.745363 81.332337,43.119379 71.067798,40.420913 72.699771,35.39439 67.419679,30.584616"
       id="path30206"
       inkscape:connector-type="polyline"
       inkscape:connector-curvature="0"
       inkscape:connection-start="#g25491"
       inkscape:connection-end="#g27618"
       sodipodi:nodetypes="css" /><text
       xml:space="preserve"
       style="font-style:normal;font-variant:normal;font-weight:normal;font-stretch:normal;font-size:2.82222px;font-family:sans-serif;-inkscape-font-specification:'sans-serif, Normal';font-variant-ligatures:normal;font-variant-caps:normal;font-variant-numeric:normal;font-variant-east-asian:normal;opacity:1;fill:#000001;fill-opacity:1;stroke:#000000;stroke-width:0.1;stroke-dasharray:none;stroke-opacity:1"
       x="102.82416"
       y="57.088818"
       id="text34832"><tspan
         sodipodi:role="line"
         id="tspan34830"
         style="font-style:normal;font-variant:normal;font-weight:normal;font-stretch:normal;font-size:2.82222px;font-family:sans-serif;-inkscape-font-specification:'sans-serif, Normal';font-variant-ligatures:normal;font-variant-caps:normal;font-variant-numeric:normal;font-variant-east-asian:normal;fill:#000001;fill-opacity:1;stroke-width:0.1;stroke-dasharray:none"
         x="102.82416"
         y="57.088818">Internet </tspan><tspan
         sodipodi:role="line"
         style="font-style:normal;font-variant:normal;font-weight:normal;font-stretch:normal;font-size:2.82222px;font-family:sans-serif;-inkscape-font-specification:'sans-serif, Normal';font-variant-ligatures:normal;font-variant-caps:normal;font-variant-numeric:normal;font-variant-east-asian:normal;fill:#000001;fill-opacity:1;stroke-width:0.1;stroke-dasharray:none"
         x="102.82416"
         y="60.616592"
         id="tspan34834">Gateway</tspan></text><rect
       style="opacity:1;fill:#c56036;fill-opacity:1;stroke:#000000;stroke-width:0.1;stroke-dasharray:none;stroke-opacity:1"
       id="rect34896"
       width="43.260941"
       height="43.497139"
       x="20.094193"
       y="83.214859"
       ry="1.7778038" /><path
       style="display:inline;fill:none;fill-rule:evenodd;stroke:#000000;stroke-width:0.465;stroke-linecap:butt;stroke-linejoin:miter;stroke-dasharray:none;stroke-opacity:1;marker-start:url(#marker37633);marker-end:url(#marker34650)"
       d="m 97.885562,61.58738 v 42.84688 c 0,0.26459 -0.264583,0.52917 -0.529167,0.52917 H 63.355133"
       id="path34606"
       inkscape:connector-type="orthogonal"
       inkscape:connector-curvature="2"
       inkscape:connection-start="#g25491"
       inkscape:connection-end="#rect34896" /><text
       xml:space="preserve"
       style="font-style:normal;font-variant:normal;font-weight:normal;font-stretch:normal;font-size:2.82223px;font-family:sans-serif;-inkscape-font-specification:'sans-serif, Normal';font-variant-ligatures:normal;font-variant-caps:normal;font-variant-numeric:normal;font-variant-east-asian:normal;opacity:1;fill:#000000;fill-opacity:1;stroke:#000000;stroke-width:0.1;stroke-dasharray:none;stroke-opacity:1"
       x="22.683926"
       y="87.270958"
       id="text34954"><tspan
         sodipodi:role="line"
         id="tspan34952"
         style="fill:#000000;fill-opacity:1;stroke-width:0.1"
         x="22.683926"
         y="87.270958">Metal host</tspan></text><g
       id="g37621"
       transform="matrix(1.218219,0,0,1.218219,-1.1727814,-9.4068986)"><g
         id="Group_79"
         data-name="Group 79"
         transform="matrix(0.08278567,0,0,0.08278567,16.925644,88.088228)"><path
           id="Path_377"
           data-name="Path 377"
           d="m 74.36,75.31 h 11.31 v 2 h -9 v 4.6 h 5.91 v 2 h -5.91 v 4.74 h 9.09 v 2 h -11.4 z" /><path
           id="Path_378"
           data-name="Path 378"
           d="m 87.86,79.5 h 2.19 v 1.12 a 4.58,4.58 0 0 1 3.35,-1.34 4.16,4.16 0 0 1 4.36,4 2.67,2.67 0 0 1 0,0.4 v 7 H 95.57 V 84 a 2.6,2.6 0 0 0 -2.36,-2.82 h -0.4 a 3.18,3.18 0 0 0 -2.76,1.45 v 8 h -2.19 z" /><path
           id="Path_379"
           data-name="Path 379"
           d="M 101.29,81.34 H 98.92 V 79.5 h 2.37 v -2.85 l 2.17,-0.52 v 3.37 h 3.28 v 1.84 h -3.28 v 6 c 0,1.14 0.46,1.55 1.64,1.55 a 4.17,4.17 0 0 0 1.6,-0.26 v 1.84 a 7.35,7.35 0 0 1 -2.08,0.33 c -2.17,0 -3.33,-1 -3.33,-3 z" /><path
           id="Path_380"
           data-name="Path 380"
           d="m 113.47,90.85 a 5.74,5.74 0 0 1 -5.85,-5.63 v -0.16 a 5.59,5.59 0 0 1 5.46,-5.73 h 0.13 A 5.52,5.52 0 0 1 118.6,85 v 0.82 h -8.81 a 3.76,3.76 0 0 0 3.77,3.2 4.32,4.32 0 0 0 2.82,-1 l 1.4,1.38 a 6.67,6.67 0 0 1 -4.31,1.45 z m -3.66,-6.7 h 6.62 a 3.33,3.33 0 0 0 -6.62,0 z" /><path
           id="Path_381"
           data-name="Path 381"
           d="m 120.68,79.5 h 2.19 v 1.42 a 3.48,3.48 0 0 1 3.07,-1.66 2.78,2.78 0 0 1 1.11,0.17 v 2 a 4,4 0 0 0 -1.29,-0.24 3.05,3.05 0 0 0 -2.89,2 v 7.45 h -2.19 z" /><path
           id="Path_382"
           data-name="Path 382"
           d="m 128.8,79.5 h 2.2 v 1.07 a 5.12,5.12 0 0 1 3.42,-1.25 5.62,5.62 0 0 1 5.58,5.62 v 0.12 a 5.63,5.63 0 0 1 -5.51,5.76 h -0.16 a 5.54,5.54 0 0 1 -3.35,-1.1 v 5.46 h -2.2 z m 2.2,3.07 v 5 a 4.1,4.1 0 0 0 3.11,1.31 3.72,3.72 0 0 0 3.77,-3.66 v -0.17 a 3.75,3.75 0 0 0 -3.64,-3.86 h -0.13 A 4,4 0 0 0 131,82.57 Z" /><path
           id="Path_383"
           data-name="Path 383"
           d="m 142.1,79.5 h 2.19 v 1.42 a 3.5,3.5 0 0 1 3.07,-1.66 2.86,2.86 0 0 1 1.12,0.17 v 2 a 4,4 0 0 0 -1.29,-0.24 3.06,3.06 0 0 0 -2.9,2 v 7.45 h -2.19 z" /><path
           id="Path_384"
           data-name="Path 384"
           d="M 150,76.34 A 1.34,1.34 0 0 1 151.33,75 v 0 a 1.36,1.36 0 1 1 0,2.71 1.34,1.34 0 0 1 -1.33,-1.37 z m 2.43,14.31 h -2.19 V 79.5 h 2.19 z" /><path
           id="Path_385"
           data-name="Path 385"
           d="m 155.14,87.76 a 5.84,5.84 0 0 0 3.64,1.4 c 1.57,0 2.67,-0.68 2.67,-1.67 0,-0.79 -0.57,-1.25 -1.8,-1.42 l -2,-0.29 c -2.21,-0.32 -3.33,-1.35 -3.33,-3.08 0,-2 1.76,-3.38 4.36,-3.38 a 7.62,7.62 0 0 1 4.49,1.43 L 162,82.19 A 6.21,6.21 0 0 0 158.51,81 c -1.34,0 -2.24,0.61 -2.24,1.51 0,0.9 0.53,1.2 1.84,1.4 l 2,0.29 c 2.21,0.33 3.37,1.38 3.37,3.11 0,2 -2,3.5 -4.66,3.5 A 7.35,7.35 0 0 1 154,89.2 Z" /><path
           id="Path_386"
           data-name="Path 386"
           d="m 170.65,90.85 a 5.74,5.74 0 0 1 -5.85,-5.63 v -0.16 a 5.59,5.59 0 0 1 5.46,-5.73 h 0.13 a 5.52,5.52 0 0 1 5.39,5.67 v 0.82 H 167 a 3.76,3.76 0 0 0 3.77,3.2 4.37,4.37 0 0 0 2.82,-1 l 1.4,1.38 a 6.67,6.67 0 0 1 -4.34,1.45 z M 167,84.15 h 6.62 a 3.33,3.33 0 0 0 -6.62,0 z" /><path
           id="Path_387"
           data-name="Path 387"
           d="m 182.7,75.31 h 2.3 v 13.3 h 8.83 v 2 H 182.7 Z" /><path
           id="Path_388"
           data-name="Path 388"
           d="M 195.65,76.34 A 1.33,1.33 0 0 1 197,75 v 0 a 1.36,1.36 0 0 1 0,2.71 1.34,1.34 0 0 1 -1.34,-1.35 z m 2.43,14.31 h -2.19 V 79.5 h 2.19 z" /><path
           id="Path_389"
           data-name="Path 389"
           d="m 200.67,79.5 h 2.19 v 1.12 a 4.56,4.56 0 0 1 3.35,-1.34 4.16,4.16 0 0 1 4.36,4 v 7.41 h -2.19 V 84 A 2.6,2.6 0 0 0 206,81.19 h -0.4 a 3.18,3.18 0 0 0 -2.76,1.45 v 8 h -2.19 z" /><path
           id="Path_390"
           data-name="Path 390"
           d="m 215.13,86.12 a 2.61,2.61 0 0 0 2.36,2.88 2.67,2.67 0 0 0 0.4,0 3.15,3.15 0 0 0 2.74,-1.46 v -8 h 2.19 v 11.11 h -2.19 v -1.12 a 4.58,4.58 0 0 1 -3.36,1.34 4.17,4.17 0 0 1 -4.34,-4 c 0,-0.14 0,-0.27 0,-0.41 v -7 h 2.19 z" /><path
           id="Path_391"
           data-name="Path 391"
           d="m 228.49,84.93 -4.16,-5.43 h 2.56 l 2.87,3.83 2.87,-3.83 h 2.48 l -4.11,5.41 4.4,5.74 h -2.6 l -3.06,-4.12 -3.12,4.12 h -2.47 z" /></g><g
         id="Group_81"
         data-name="Group 81"
         transform="matrix(0.08278567,0,0,0.08278567,16.925644,88.088228)"><g
           id="Group_80"
           data-name="Group 80"><path
             id="Path_392"
             data-name="Path 392"
             class="cls-2"
             d="m 53.36,62.31 c 2.64,0 6.45,-0.55 6.45,-3.68 a 2.88,2.88 0 0 0 -0.06,-0.72 l -1.57,-6.82 c -0.37,-1.5 -0.68,-2.18 -3.32,-3.5 -2,-1 -6.49,-2.77 -7.81,-2.77 -1.32,0 -1.59,1.59 -3,1.59 -1.41,0 -2.45,-1.18 -3.77,-1.18 -1.32,0 -2.09,0.86 -2.73,2.63 0,0 -1.77,5 -2,5.72 a 1.43,1.43 0 0 0 0,0.41 c 0,1.94 7.64,8.31 17.89,8.31 m 6.86,-2.4 a 10.2,10.2 0 0 1 0.28,2.1 c 0,3 -3.31,4.59 -7.67,4.59 -9.86,0 -18.49,-5.77 -18.49,-9.59 a 3.9,3.9 0 0 1 0.32,-1.54 c -3.54,0.18 -8.13,0.82 -8.13,4.86 0,6.63 15.72,14.8 28.16,14.8 9.54,0 11.94,-4.31 11.94,-7.72 0,-2.68 -2.31,-5.72 -6.49,-7.54" /><path
             id="Path_393"
             data-name="Path 393"
             d="m 60.22,59.9 a 9.67,9.67 0 0 1 0.36,2.1 c 0,2.95 -3.31,4.58 -7.67,4.58 -9.86,0 -18.48,-5.76 -18.48,-9.58 a 3.85,3.85 0 0 1 0.31,-1.54 l 0.78,-1.91 a 1.13,1.13 0 0 0 -0.05,0.41 c 0,1.94 7.65,8.31 17.89,8.31 2.64,0 6.45,-0.55 6.45,-3.68 a 2.92,2.92 0 0 0 -0.06,-0.72 z" /></g><path
           id="Path_394"
           data-name="Path 394"
           d="m 148.64,64.27 c 0,2.5 1.51,3.73 4.25,3.73 a 11.6,11.6 0 0 0 2.5,-0.36 v -2.9 a 5.21,5.21 0 0 1 -1.61,0.25 c -1.13,0 -1.55,-0.36 -1.55,-1.42 v -4.46 h 3.27 v -3 h -3.27 v -3.78 l -3.59,0.78 v 3 h -2.37 v 3 h 2.37 z m -11.15,0.07 c 0,-0.77 0.77,-1.15 1.95,-1.15 a 8.92,8.92 0 0 1 2.12,0.26 V 65 a 4.35,4.35 0 0 1 -2.24,0.55 c -1.15,0 -1.83,-0.44 -1.83,-1.17 m 1.1,3.7 a 5.47,5.47 0 0 0 3.23,-0.91 v 0.71 h 3.55 v -7.55 c 0,-2.86 -1.93,-4.43 -5.14,-4.43 a 13,13 0 0 0 -5.48,1.29 l 1.25,2.63 a 9.68,9.68 0 0 1 3.54,-0.93 c 1.49,0 2.24,0.58 2.24,1.75 v 0.58 a 10.38,10.38 0 0 0 -2.66,-0.34 c -3,0 -4.83,1.27 -4.83,3.53 0,2.06 1.64,3.63 4.26,3.63 m -19.48,-0.2 h 3.81 v -6.07 h 6.39 v 6.07 h 3.81 V 52.33 h -3.81 v 6 h -6.39 v -6 h -3.81 z M 104.59,62 a 3,3 0 0 1 3,-3 h 0.11 a 3.64,3.64 0 0 1 2.48,0.91 V 64 a 3.45,3.45 0 0 1 -2.48,0.93 3,3 0 0 1 -3.08,-2.88 V 62 m 5.61,5.87 h 3.54 V 51.56 l -3.59,0.77 v 4.41 a 6.11,6.11 0 0 0 -9.08,5.11 V 62 a 6,6 0 0 0 5.9,6 h 0.1 a 5.27,5.27 0 0 0 3.15,-1 z m -16.26,-9 a 2.58,2.58 0 0 1 2.45,1.86 h -4.9 a 2.45,2.45 0 0 1 2.44,-1.86 M 87.88,62 a 6.17,6.17 0 0 0 6.23,6.08 h 0.15 a 7,7 0 0 0 4.9,-1.77 l -2.37,-2.1 a 3.13,3.13 0 0 1 -2.34,0.89 3,3 0 0 1 -2.88,-1.86 h 8.35 v -0.89 c 0,-3.72 -2.5,-6.4 -5.92,-6.4 a 6,6 0 0 0 -6.11,5.92 V 62 m -6.18,-6.4 a 1.78,1.78 0 0 1 2,1.57 c 0,0.06 0,0.12 0,0.18 a 1.78,1.78 0 0 1 -1.8,1.76 H 77.94 V 55.6 Z m -7.58,12.25 h 3.81 V 62.2 h 2.9 l 2.92,5.65 H 88 l -3.41,-6.2 a 4.69,4.69 0 0 0 2.92,-4.36 c 0,-2.8 -2.19,-4.94 -5.47,-4.94 h -7.91 z" /></g><text
         xml:space="preserve"
         style="font-style:normal;font-variant:normal;font-weight:normal;font-stretch:normal;font-size:2.82223px;font-family:sans-serif;-inkscape-font-specification:'sans-serif, Normal';font-variant-ligatures:normal;font-variant-caps:normal;font-variant-numeric:normal;font-variant-east-asian:normal;opacity:1;fill:#000000;fill-opacity:1;stroke:#000000;stroke-width:0;stroke-dasharray:none;stroke-opacity:1"
         x="36.793392"
         y="95.618057"
         id="text37596"><tspan
           sodipodi:role="line"
           id="tspan37594"
           style="stroke-width:0;stroke-dasharray:none"
           x="36.793392"
           y="95.618057">8</tspan></text></g><g
       id="g37863"
       transform="translate(2.6458334,-1.5875)"><text
         xml:space="preserve"
         style="font-style:normal;font-variant:normal;font-weight:normal;font-stretch:normal;font-size:1.41111px;font-family:sans-serif;-inkscape-font-specification:'sans-serif, Normal';font-variant-ligatures:normal;font-variant-caps:normal;font-variant-numeric:normal;font-variant-east-asian:normal;fill:#000000;fill-opacity:1;stroke:#000000;stroke-width:0.1;stroke-dasharray:none;stroke-opacity:1"
         x="66.308853"
         y="75.331383"
         id="text34888"><tspan
           sodipodi:role="line"
           id="tspan34886"
           style="font-style:normal;font-variant:normal;font-weight:normal;font-stretch:normal;font-size:1.41111px;font-family:sans-serif;-inkscape-font-specification:'sans-serif, Normal';font-variant-ligatures:normal;font-variant-caps:normal;font-variant-numeric:normal;font-variant-east-asian:normal;fill:#000000;fill-opacity:1;stroke-width:0.1;stroke-dasharray:none"
           x="66.308853"
           y="75.331383">Routing</tspan><tspan
           sodipodi:role="line"
           style="font-style:normal;font-variant:normal;font-weight:normal;font-stretch:normal;font-size:1.41111px;font-family:sans-serif;-inkscape-font-specification:'sans-serif, Normal';font-variant-ligatures:normal;font-variant-caps:normal;font-variant-numeric:normal;font-variant-east-asian:normal;fill:#000000;fill-opacity:1;stroke-width:0.1;stroke-dasharray:none"
           x="66.308853"
           y="77.095268"
           id="tspan34890">Table</tspan></text><g
         style="fill:#000000;fill-opacity:1"
         id="g37844"
         transform="matrix(0.39732119,0,0,0.39732119,66.272961,67.217739)"><path
           id="Path_29"
           data-name="Path 29"
           d="m 37.5,0 h -11 A 2.5,2.5 0 0 0 24,2.5 v 11 a 2.5,2.5 0 0 0 2.5,2.5 h 11 A 2.5,2.5 0 0 0 40,13.5 V 2.5 A 2.5,2.5 0 0 0 37.5,0 Z m -11,1 h 11 A 1.5,1.5 0 0 1 39,2.5 V 4 H 25 V 2.5 A 1.5,1.5 0 0 1 26.5,1 Z M 25,13.5 V 5 h 4 V 15 H 26.5 A 1.5,1.5 0 0 1 25,13.5 Z M 37.5,15 H 30 V 5 h 9 v 8.5 A 1.5,1.5 0 0 1 37.5,15 Z M 26,6.5 A 0.5,0.5 0 0 1 26.5,6 h 1 a 0.5,0.5 0 0 1 0,1 h -1 A 0.5,0.5 0 0 1 26,6.5 Z m 2,3 A 0.5,0.5 0 0 1 27.5,10 h -1 a 0.5,0.5 0 0 1 0,-1 h 1 A 0.5,0.5 0 0 1 28,9.5 Z m 0,3 A 0.5,0.5 0 0 1 27.5,13 h -1 a 0.5,0.5 0 0 1 0,-1 h 1 a 0.5,0.5 0 0 1 0.5,0.5 z m 10,-6 A 0.5,0.5 0 0 1 37.5,7 h -6 a 0.5,0.5 0 0 1 0,-1 h 6 A 0.5,0.5 0 0 1 38,6.5 Z m 0,3 A 0.5,0.5 0 0 1 37.5,10 h -6 a 0.5,0.5 0 0 1 0,-1 h 6 A 0.5,0.5 0 0 1 38,9.5 Z m 0,3 A 0.5,0.5 0 0 1 37.5,13 h -6 a 0.5,0.5 0 0 1 0,-1 h 6 a 0.5,0.5 0 0 1 0.5,0.5 z"
           transform="translate(-24)"
           style="fill:#000000;fill-opacity:1" /></g></g><text
       xml:space="preserve"
       style="font-style:normal;font-variant:normal;font-weight:bold;font-stretch:normal;font-size:1.76389px;font-family:'Liberation Mono';-inkscape-font-specification:'Liberation Mono, Bold';font-variant-ligatures:normal;font-variant-caps:normal;font-variant-numeric:normal;font-variant-east-asian:normal;opacity:1;fill:#20c5e6;fill-opacity:1;stroke:#000000;stroke-width:0;stroke-dasharray:none;stroke-opacity:1"
       x="46.700874"
       y="91.659256"
       id="text38643"><tspan
         sodipodi:role="line"
         id="tspan38641"
         style="font-style:normal;font-variant:normal;font-weight:bold;font-stretch:normal;font-size:1.76389px;font-family:'Liberation Mono';-inkscape-font-specification:'Liberation Mono, Bold';font-variant-ligatures:normal;font-variant-caps:normal;font-variant-numeric:normal;font-variant-east-asian:normal;fill:#20c5e6;fill-opacity:1;stroke-width:0"
         x="46.700874"
         y="91.659256">22 (ssh)</tspan><tspan
         sodipodi:role="line"
         style="font-style:normal;font-variant:normal;font-weight:bold;font-stretch:normal;font-size:1.76389px;font-family:'Liberation Mono';-inkscape-font-specification:'Liberation Mono, Bold';font-variant-ligatures:normal;font-variant-caps:normal;font-variant-numeric:normal;font-variant-east-asian:normal;fill:#20c5e6;fill-opacity:1;stroke-width:0"
         x="46.700874"
         y="93.86412"
         id="tspan38645">80 (http)</tspan><tspan
         sodipodi:role="line"
         style="font-style:normal;font-variant:normal;font-weight:bold;font-stretch:normal;font-size:1.76389px;font-family:'Liberation Mono';-inkscape-font-specification:'Liberation Mono, Bold';font-variant-ligatures:normal;font-variant-caps:normal;font-variant-numeric:normal;font-variant-east-asian:normal;fill:#20c5e6;fill-opacity:1;stroke-width:0"
         x="46.700874"
         y="96.068977"
         id="tspan38647">443 (https)</tspan><tspan
         sodipodi:role="line"
         style="font-style:normal;font-variant:normal;font-weight:bold;font-stretch:normal;font-size:1.76389px;font-family:'Liberation Mono';-inkscape-font-specification:'Liberation Mono, Bold';font-variant-ligatures:normal;font-variant-caps:normal;font-variant-numeric:normal;font-variant-east-asian:normal;fill:#20c5e6;fill-opacity:1;stroke-width:0"
         x="46.700874"
         y="98.273842"
         id="tspan38649">5900-5910 (vnc)</tspan><tspan
         sodipodi:role="line"
         style="font-style:normal;font-variant:normal;font-weight:bold;font-stretch:normal;font-size:1.76389px;font-family:'Liberation Mono';-inkscape-font-specification:'Liberation Mono, Bold';font-variant-ligatures:normal;font-variant-caps:normal;font-variant-numeric:normal;font-variant-east-asian:normal;fill:#20c5e6;fill-opacity:1;stroke-width:0"
         x="46.700874"
         y="100.47871"
         id="tspan38651">6443 (OCP API)</tspan></text><path
       style="opacity:1;fill:#000000;fill-opacity:1;stroke:#000000;stroke-width:0.4;stroke-dasharray:none;stroke-opacity:1;marker-end:url(#Arrow2)"
       d="M 58.690527,101.60638 H 51.217014"
       id="path41531"
       sodipodi:nodetypes="cc" /><rect
       style="opacity:1;fill:none;fill-opacity:1;stroke:#000000;stroke-width:0.458754;stroke-linejoin:miter;stroke-dasharray:1.835, 0.458754;stroke-dashoffset:0;stroke-opacity:1"
       id="rect42155"
       width="16.762091"
       height="13.056048"
       x="45.939545"
       y="89.614464"
       ry="0.16166754" /><path
       style="opacity:1;fill:#000000;fill-opacity:1;stroke:#000000;stroke-width:0.4;stroke-dasharray:none;stroke-opacity:1;marker-end:url(#Arrow2)"
       d="m 52.759639,111.01954 h 7.473513"
       id="path42947"
       sodipodi:nodetypes="cc" /><text
       xml:space="preserve"
       style="font-style:normal;font-variant:normal;font-weight:bold;font-stretch:normal;font-size:1.41111px;font-family:'Liberation Mono';-inkscape-font-specification:'Liberation Mono, Bold';font-variant-ligatures:normal;font-variant-caps:normal;font-variant-numeric:normal;font-variant-east-asian:normal;opacity:1;fill:none;fill-opacity:1;stroke:#000000;stroke-width:0.4;stroke-linejoin:miter;stroke-dasharray:1.6, 0.4;stroke-dashoffset:0;stroke-opacity:1"
       x="50.866467"
       y="113.88274"
       id="text42957"><tspan
         sodipodi:role="line"
         id="tspan42955"
         style="stroke-width:0.4"
         x="50.866467"
         y="113.88274" /></text><text
       xml:space="preserve"
       style="font-style:normal;font-variant:normal;font-weight:normal;font-stretch:normal;font-size:1.76389px;font-family:'Droid Sans';-inkscape-font-specification:'Droid Sans, Normal';font-variant-ligatures:normal;font-variant-caps:normal;font-variant-numeric:normal;font-variant-east-asian:normal;opacity:1;fill:#20c5e6;fill-opacity:1;stroke:#20c5e6;stroke-width:0.1;stroke-linejoin:miter;stroke-dasharray:none;stroke-dashoffset:0;stroke-opacity:1"
       x="49.568577"
       y="109.47047"
       id="text43076"><tspan
         sodipodi:role="line"
         id="tspan43074"
         style="font-style:normal;font-variant:normal;font-weight:normal;font-stretch:normal;font-size:1.76389px;font-family:'Droid Sans';-inkscape-font-specification:'Droid Sans, Normal';font-variant-ligatures:normal;font-variant-caps:normal;font-variant-numeric:normal;font-variant-east-asian:normal;fill:#20c5e6;fill-opacity:1;stroke:#20c5e6;stroke-width:0.1;stroke-dasharray:none;stroke-opacity:1"
         x="49.568577"
         y="109.47047">(Any)</tspan></text><rect
       style="opacity:1;fill:none;fill-opacity:1;stroke:#000000;stroke-width:0.4;stroke-linejoin:miter;stroke-dasharray:1.6, 0.4;stroke-dashoffset:0;stroke-opacity:1"
       id="rect43078"
       width="13.82214"
       height="5.0779977"
       x="48.863823"
       y="107.13626"
       ry="0.062878706" /><text
       xml:space="preserve"
       style="font-style:normal;font-variant:normal;font-weight:normal;font-stretch:normal;font-size:1.76389px;font-family:'Droid Sans';-inkscape-font-specification:'Droid Sans, Normal';font-variant-ligatures:normal;font-variant-caps:normal;font-variant-numeric:normal;font-variant-east-asian:normal;opacity:1;fill:none;fill-opacity:1;stroke:#000000;stroke-width:0.4;stroke-linecap:square;stroke-linejoin:round;stroke-dasharray:none;stroke-dashoffset:0;stroke-opacity:1"
       x="50.824615"
       y="105.24889"
       id="text43157"><tspan
         sodipodi:role="line"
         id="tspan43155"
         style="stroke-width:0.4"
         x="50.824615"
         y="105.24889"></tspan></text><g
       id="g43276"
       transform="translate(-46.251939,-4.2800143)"
       style="fill:#5c60c0;fill-opacity:1"><ellipse
         style="opacity:0.489462;fill:#5c60c0;fill-opacity:1;stroke:#000000;stroke-width:0.1;stroke-linecap:square;stroke-linejoin:round;stroke-dasharray:none;stroke-dashoffset:0;stroke-opacity:1"
         id="path43219"
         cx="102.99195"
         cy="109.32248"
         rx="5.3522401"
         ry="1.4732894" /><text
         xml:space="preserve"
         style="font-style:normal;font-variant:normal;font-weight:normal;font-stretch:normal;font-size:1.76389px;font-family:'Droid Sans';-inkscape-font-specification:'Droid Sans, Normal';font-variant-ligatures:normal;font-variant-caps:normal;font-variant-numeric:normal;font-variant-east-asian:normal;opacity:1;fill:#5c60c0;fill-opacity:1;stroke:#000000;stroke-width:0.1;stroke-linecap:square;stroke-linejoin:round;stroke-dasharray:none;stroke-dashoffset:0;stroke-opacity:1"
         x="99.340866"
         y="109.99816"
         id="text43161"><tspan
           sodipodi:role="line"
           id="tspan43159"
           style="fill:#5c60c0;fill-opacity:1;stroke-width:0.1;stroke-dasharray:none"
           x="99.340866"
           y="109.99816">Public IP</tspan></text></g></g></svg>
